<svg width="320" height="220" viewBox="0 0 320 220" xmlns="http://www.w3.org/2000/svg">
    <g fill="#007BFF">
        <path
            d="
      M 50 50
      a 20 20 0 1 1 0 40
      h 100
      a 20 20 0 1 1 0 -40
      Z

      M 80 60
      a 15 15 0 1 1 0 30
      h 30
      a 15 15 0 1 1 0 -30
      Z
    "
            fill-rule="evenodd" />
    </g>
    <g fill="#28a745">
        <path
            d="
      M 50 120
      a 20 20 0 1 1 0 40
      h 100
      a 20 20 0 1 1 0 -40
      Z

      M 80 130
      a 15 15 0 1 1 0 30
      h 30
      a 15 15 0 1 1 0 -30
      Z
    "
            fill-rule="evenodd" />
    </g>

    <g transform="translate(50, 30)">
        <!-- Eerste cirkel -->
        <circle
            cx="-15"
            cy="0"
            r="25"
            fill="#349b4c"
            fill-opacity="0.65"
        />
        <!-- Tweede cirkel -->
        <circle
            cx="15"
            cy="0"
            r="25"
            fill="#223c89"
            fill-opacity="0.65"
        />
    </g>
</svg>